<?xml version="1.0" standalone="no"?>
<!DOCTYPE svg PUBLIC "-//W3C//DTD SVG 20010904//EN"
 "http://www.w3.org/TR/2001/REC-SVG-20010904/DTD/svg10.dtd">
<svg version="1.0" xmlns="http://www.w3.org/2000/svg"
 width="256.000000pt" height="256.000000pt" viewBox="0 0 256.000000 256.000000"
 preserveAspectRatio="xMidYMid meet">
<metadata>
Created by potrace 1.11, written by Peter Selinger 2001-2013
</metadata>
<g transform="translate(0.000000,256.000000) scale(0.100000,-0.100000)"
fill="#000000" stroke="none">
<path d="M0 1280 l0 -1280 1280 0 1280 0 0 1280 0 1280 -1280 0 -1280 0 0
-1280z m2092 987 c66 -32 141 -109 171 -175 17 -38 22 -66 22 -142 0 -82 -4
-103 -26 -150 -85 -181 -305 -256 -482 -165 l-48 25 -380 -191 c-209 -104
-379 -195 -377 -201 2 -6 165 -94 362 -195 l358 -185 76 39 c64 32 87 39 151
41 173 8 313 -98 357 -268 41 -160 -38 -326 -192 -401 -55 -27 -73 -31 -147
-31 -70 -1 -93 3 -143 26 -111 51 -195 162 -209 280 l-7 51 -366 188 -367 188
-64 -33 c-60 -30 -72 -33 -161 -33 -84 0 -102 3 -151 28 -67 32 -142 109 -171
175 -29 65 -36 183 -14 250 50 149 183 246 335 246 77 0 128 -15 193 -56 l46
-29 360 180 359 180 7 61 c17 152 89 250 225 307 79 34 203 29 283 -10z"/>
</g>
</svg>
